<?xml version="1.0" encoding="utf-8"?>
<!-- Generator: Adobe Illustrator 24.1.1, SVG Export Plug-In . SVG Version: 6.00 Build 0)  -->
<svg version="1.1" id="Layer_1" xmlns="http://www.w3.org/2000/svg" xmlns:xlink="http://www.w3.org/1999/xlink" x="0px" y="0px"
	 viewBox="0 0 500 500" style="enable-background:new 0 0 500 500;" xml:space="preserve">
<style type="text/css">
	.st0{fill:url(#SVGID_1_);}
</style>
<g>
	
		<linearGradient id="SVGID_1_" gradientUnits="userSpaceOnUse" x1="0.4128" y1="8.064955e-04" x2="0.5588" y2="8.064955e-04" gradientTransform="matrix(2312.5 0 0 2312.5 -873.4236 248.135)">
		<stop  offset="0" style="stop-color:#11AAE2"/>
		<stop  offset="0.59" style="stop-color:#0880B7"/>
		<stop  offset="1" style="stop-color:#016197"/>
	</linearGradient>
	<path class="st0" d="M304.37,77.32c-23.98,14.09-38.18,39.53-38.18,66.36c0,14.09,5.66,28.29,12.74,40.95
		c5.66,11.32,8.43,31.06-11.32,40.95c-14.09,8.43-32.53,2.81-40.96-11.32c-8.43-11.32-18.32-22.63-31.07-31.06
		c-23.98-14.09-52.27-14.09-76.26,0c-23.98,14.09-38.15,39.6-38.15,66.43c0,26.84,14.09,52.27,38.14,66.4
		c23.98,14.09,52.27,14.09,76.26,0c12.74-7.08,22.63-18.32,29.64-31.06c5.66-9.89,21.21-22.63,40.96-11.32
		c14.09,8.43,18.32,26.87,11.32,40.95c-7.08,12.74-11.32,26.87-11.32,40.95c0,26.87,14.09,52.27,38.18,66.36
		c23.98,14.09,52.27,14.09,76.26,0c23.98-14.09,38.19-39.53,38.19-66.36s-14.13-52.27-38.18-66.4c-12.74-7.08-26.87-9.89-42.38-9.89
		c-12.74,0-29.64-8.43-29.64-29.64c0-16.97,12.74-29.64,29.64-29.64c14.09,0,29.64-2.81,42.38-9.89
		c23.98-14.09,38.18-39.53,38.18-66.36s-14.13-52.27-38.18-66.36c-11.32-7.08-25.41-9.89-38.14-9.89
		C329.82,67.43,315.62,70.31,304.37,77.32"/>
</g>
</svg>
